<svg width="87" height="88" viewBox="0 0 87 88" fill="none" xmlns="http://www.w3.org/2000/svg">
<path d="M7.32568 46.1443H68.6359" stroke="black" stroke-width="5.40972" stroke-miterlimit="10" stroke-linecap="round" stroke-linejoin="round"/>
<path d="M68.6359 37.7412V63.5275C68.5277 73.806 65.7145 76.4027 55.0033 76.4027H20.9583C10.0667 76.4027 7.32568 73.6978 7.32568 62.9505V37.7412C7.32568 28.0037 9.59777 24.866 18.1451 24.3611C19.0107 24.3251 19.9485 24.289 20.9583 24.289H55.0033C65.8948 24.289 68.6359 26.9939 68.6359 37.7412Z" stroke="black" stroke-width="5.40972" stroke-linecap="round" stroke-linejoin="round"/>
<path d="M79.4542 24.9383V50.1476C79.4542 59.8851 77.1821 63.0227 68.6348 63.5276V37.7413C68.6348 26.9939 65.8938 24.2891 55.0022 24.2891H20.9572C19.9474 24.2891 19.0096 24.3252 18.144 24.3612C18.2522 14.0827 21.0654 11.4861 31.7766 11.4861H65.8216C76.7132 11.4861 79.4542 14.1909 79.4542 24.9383Z" stroke="black" stroke-width="5.40972" stroke-linecap="round" stroke-linejoin="round"/>
<path d="M19.0464 64.8981H25.2494" stroke="black" stroke-width="5.40972" stroke-miterlimit="10" stroke-linecap="round" stroke-linejoin="round"/>
<path d="M32.9678 64.8981H45.3741" stroke="black" stroke-width="5.40972" stroke-miterlimit="10" stroke-linecap="round" stroke-linejoin="round"/>
</svg>
