<svg width="88" height="88" viewBox="0 0 88 88" fill="none" xmlns="http://www.w3.org/2000/svg">
<path d="M7.99219 36.7314H80.1218" stroke="black" stroke-width="5.40972" stroke-miterlimit="10" stroke-linecap="round" stroke-linejoin="round"/>
<path d="M42.4282 74.5986H23.9991C11.1961 74.5986 7.9502 71.4249 7.9502 58.7662V29.1209C7.9502 17.6523 10.6191 13.9736 20.6812 13.3966C21.691 13.3605 22.8089 13.3245 23.9991 13.3245H64.067C76.87 13.3245 80.1159 16.4982 80.1159 29.1569V45.0615" stroke="black" stroke-width="5.40972" stroke-linecap="round" stroke-linejoin="round"/>
<path d="M22.4189 58.3703H36.8449" stroke="black" stroke-width="5.40972" stroke-miterlimit="10" stroke-linecap="round" stroke-linejoin="round"/>
<path d="M80.1214 65.5832C80.1214 68.2881 79.364 70.8487 78.0296 73.0126C75.5411 77.1961 70.9609 80.0091 65.6955 80.0091C60.43 80.0091 55.8498 77.1961 53.3614 73.0126C52.027 70.8487 51.2695 68.2881 51.2695 65.5832C51.2695 57.6129 57.7251 51.1573 65.6955 51.1573C73.6658 51.1573 80.1214 57.6129 80.1214 65.5832Z" stroke="black" stroke-width="5.40972" stroke-miterlimit="10" stroke-linecap="round" stroke-linejoin="round"/>
<path d="M60.0757 65.5816L63.6461 69.152L71.3279 62.0472" stroke="black" stroke-width="5.40972" stroke-linecap="round" stroke-linejoin="round"/>
</svg>
