<svg width="87" height="87" viewBox="0 0 87 87" fill="none" xmlns="http://www.w3.org/2000/svg">
<path d="M14.6095 52.9836L9.1277 47.5017C6.89168 45.2657 6.89168 41.587 9.1277 39.351L14.6095 33.8691C15.5472 32.9314 16.3046 31.0921 16.3046 29.7937V22.0397C16.3046 18.866 18.9012 16.2694 22.075 16.2694H29.8289C31.1272 16.2694 32.9665 15.5122 33.9042 14.5745L39.386 9.09257C41.622 6.85655 45.3007 6.85655 47.5367 9.09257L53.0186 14.5745C53.9563 15.5122 55.7955 16.2694 57.0939 16.2694H64.8479C68.0216 16.2694 70.6182 18.866 70.6182 22.0397V29.7937C70.6182 31.0921 71.3755 32.9314 72.3132 33.8691L77.7951 39.351C80.0312 41.587 80.0312 45.2657 77.7951 47.5017L72.3132 52.9836C71.3755 53.9213 70.6182 55.7606 70.6182 57.0589V64.8125C70.6182 67.9862 68.0216 70.5833 64.8479 70.5833H57.0939C55.7955 70.5833 53.9563 71.3405 53.0186 72.2782L47.5367 77.7601C45.3007 79.9961 41.622 79.9961 39.386 77.7601L33.9042 72.2782C32.9665 71.3405 31.1272 70.5833 29.8289 70.5833H22.075C18.9012 70.5833 16.3046 67.9862 16.3046 64.8125V57.0589C16.3046 55.7246 15.5472 53.8852 14.6095 52.9836Z" stroke="black" stroke-width="5.40972" stroke-linecap="round" stroke-linejoin="round"/>
<path d="M32.6816 54.2082L54.3205 32.5693" stroke="black" stroke-width="5.40972" stroke-linecap="round" stroke-linejoin="round"/>
<path d="M52.4973 52.405H52.5297" stroke="black" stroke-width="7.21296" stroke-linecap="round" stroke-linejoin="round"/>
<path d="M34.4651 34.3726H34.4975" stroke="black" stroke-width="7.21296" stroke-linecap="round" stroke-linejoin="round"/>
</svg>
