<svg width="87" height="88" viewBox="0 0 87 88" fill="none" xmlns="http://www.w3.org/2000/svg">
<path d="M65.1746 49.4233C63.6599 50.902 62.7943 53.0298 63.0107 55.3019C63.3353 59.1969 66.9057 62.046 70.8007 62.046H77.653V66.3378C77.653 73.8032 71.5581 79.8982 64.0927 79.8982H27.6672C30.6606 77.2654 32.572 73.4065 32.572 69.0787C32.572 61.1084 26.1164 54.6528 18.1461 54.6528C14.756 54.6528 11.6184 55.8429 9.12988 57.8265V42.0662C9.12988 34.6008 15.2248 28.5058 22.6902 28.5058H64.0927C71.5581 28.5058 77.653 34.6008 77.653 42.0662V47.2595H70.3679C68.3483 47.2595 66.509 48.0529 65.1746 49.4233Z" stroke="black" stroke-width="5.40972" stroke-linecap="round" stroke-linejoin="round"/>
<path d="M9.12939 42.0662V28.8305C9.12939 24.5388 11.7621 20.7157 15.7653 19.201L44.4008 8.38157C48.8728 6.72259 53.6695 10.0046 53.6695 14.8012V28.5058" stroke="black" stroke-width="5.40972" stroke-linecap="round" stroke-linejoin="round"/>
<path d="M81.4698 50.9387V58.3683C81.4698 60.3519 79.8829 61.9746 77.8633 62.0468H70.7946C66.8996 62.0468 63.3292 59.1977 63.0046 55.3027C62.7882 53.0306 63.6537 50.9027 65.1684 49.4241C66.5028 48.0536 68.3422 47.2603 70.3618 47.2603H77.8633C79.8829 47.3324 81.4698 48.9552 81.4698 50.9387Z" stroke="black" stroke-width="5.40972" stroke-linecap="round" stroke-linejoin="round"/>
<path d="M25.3569 43.8334H50.6023" stroke="black" stroke-width="5.40972" stroke-linecap="round" stroke-linejoin="round"/>
<path d="M32.5701 69.0788C32.5701 73.4065 30.6587 77.2655 27.6653 79.8982C25.1047 82.1342 21.7867 83.5047 18.1442 83.5047C10.1739 83.5047 3.71826 77.0491 3.71826 69.0788C3.71826 64.5346 5.81002 60.4593 9.12798 57.8266C11.6165 55.843 14.7541 54.6528 18.1442 54.6528C26.1145 54.6528 32.5701 61.1084 32.5701 69.0788Z" stroke="black" stroke-width="5.40972" stroke-miterlimit="10" stroke-linecap="round" stroke-linejoin="round"/>
<path d="M19.0462 64.5706V69.9803L14.5381 72.6852" stroke="black" stroke-width="5.40972" stroke-miterlimit="10" stroke-linecap="round" stroke-linejoin="round"/>
</svg>
