<svg width="88" height="87" viewBox="0 0 88 87" fill="none" xmlns="http://www.w3.org/2000/svg">
<path d="M43.9459 52.405C48.9254 52.405 52.9621 48.3683 52.9621 43.3888C52.9621 38.4093 48.9254 34.3726 43.9459 34.3726C38.9664 34.3726 34.9297 38.4093 34.9297 43.3888C34.9297 48.3683 38.9664 52.405 43.9459 52.405Z" stroke="black" stroke-width="5.40972" stroke-miterlimit="10" stroke-linecap="round" stroke-linejoin="round"/>
<path d="M67.3872 34.3726V52.405" stroke="black" stroke-width="5.40972" stroke-miterlimit="10" stroke-linecap="round" stroke-linejoin="round"/>
<path d="M33.1258 65.0277C33.1258 67.7326 32.3685 70.2932 31.0341 72.457C28.5456 76.6406 23.9653 79.4536 18.6999 79.4536C13.4344 79.4536 8.85411 76.6406 6.36564 72.457C5.03124 70.2932 4.27393 67.7326 4.27393 65.0277C4.27393 57.0574 10.7295 50.6018 18.6999 50.6018C26.6702 50.6018 33.1258 57.0574 33.1258 65.0277Z" stroke="black" stroke-width="5.40972" stroke-miterlimit="10" stroke-linecap="round" stroke-linejoin="round"/>
<path d="M13.0801 65.026L16.6505 68.5963L24.3323 61.4917" stroke="black" stroke-width="5.40972" stroke-linecap="round" stroke-linejoin="round"/>
<path d="M7.88086 55.2902V32.5694C7.88086 19.9467 15.0938 14.537 25.9133 14.537H61.9781C72.7975 14.537 80.0105 19.9467 80.0105 32.5694V54.2083C80.0105 66.831 72.7975 72.2407 61.9781 72.2407H31.323" stroke="black" stroke-width="5.40972" stroke-miterlimit="10" stroke-linecap="round" stroke-linejoin="round"/>
</svg>
