<svg width="88" height="88" viewBox="0 0 88 88" fill="none" xmlns="http://www.w3.org/2000/svg">
<path d="M7.88086 55.4852V33.1249C7.88086 20.5023 15.0938 15.0925 25.9133 15.0925H61.9781C72.7975 15.0925 80.0105 20.5023 80.0105 33.1249V54.7638C80.0105 67.3865 72.7975 72.7962 61.9781 72.7962H31.323" stroke="black" stroke-width="5.40972" stroke-miterlimit="10" stroke-linecap="round" stroke-linejoin="round"/>
<path d="M43.9459 52.9605C48.9254 52.9605 52.9621 48.9238 52.9621 43.9443C52.9621 38.9648 48.9254 34.9281 43.9459 34.9281C38.9664 34.9281 34.9297 38.9648 34.9297 43.9443C34.9297 48.9238 38.9664 52.9605 43.9459 52.9605Z" stroke="black" stroke-width="5.40972" stroke-miterlimit="10" stroke-linecap="round" stroke-linejoin="round"/>
<path d="M67.3872 34.9281V52.9605" stroke="black" stroke-width="5.40972" stroke-miterlimit="10" stroke-linecap="round" stroke-linejoin="round"/>
<path d="M33.1258 65.5832C33.1258 68.2881 32.3684 70.8487 31.034 73.0126C28.5455 77.1961 23.9653 80.0091 18.6999 80.0091C13.4344 80.0091 8.85422 77.1961 6.36575 73.0126C5.03135 70.8487 4.27393 68.2881 4.27393 65.5832C4.27393 57.6129 10.7295 51.1573 18.6999 51.1573C26.6702 51.1573 33.1258 57.6129 33.1258 65.5832Z" stroke="black" stroke-width="5.40972" stroke-miterlimit="10" stroke-linecap="round" stroke-linejoin="round"/>
<path d="M28.6174 55.6654L8.78174 75.5011" stroke="black" stroke-width="5.40972" stroke-miterlimit="10" stroke-linecap="round" stroke-linejoin="round"/>
</svg>
