<svg width="88" height="87" viewBox="0 0 88 87" fill="none" xmlns="http://www.w3.org/2000/svg">
<path d="M80.01 21.6388V30.3665C80.01 36.0648 76.4035 39.6713 70.7053 39.6713H58.3711V14.4619C58.3711 10.4587 61.653 7.21292 65.6562 7.21292C69.5873 7.24899 73.1937 8.83583 75.7904 11.4325C78.3871 14.0652 80.01 17.6717 80.01 21.6388Z" stroke="black" stroke-width="5.40972" stroke-miterlimit="10" stroke-linecap="round" stroke-linejoin="round"/>
<path d="M7.88086 25.2453V75.7361C7.88086 78.7295 11.271 80.4245 13.6512 78.6213L19.8183 74.0049C21.2609 72.923 23.2805 73.0673 24.5789 74.3656L30.5656 80.3884C31.9722 81.795 34.2803 81.795 35.6868 80.3884L41.7457 74.3295C43.008 73.0673 45.0276 72.923 46.4341 74.0049L52.6012 78.6213C54.9815 80.3884 58.3716 78.6934 58.3716 75.7361V14.4259C58.3716 10.4588 61.6174 7.21292 65.5846 7.21292H25.9133H22.3068C11.4873 7.21292 7.88086 13.6685 7.88086 21.6388V25.2453Z" stroke="black" stroke-width="5.40972" stroke-miterlimit="10" stroke-linecap="round" stroke-linejoin="round"/>
<path d="M33.1255 46.9203H43.9449" stroke="black" stroke-width="5.40972" stroke-linecap="round" stroke-linejoin="round"/>
<path d="M33.1255 32.4944H43.9449" stroke="black" stroke-width="5.40972" stroke-linecap="round" stroke-linejoin="round"/>
<path d="M22.2915 46.8842H22.3239" stroke="black" stroke-width="7.21296" stroke-linecap="round" stroke-linejoin="round"/>
<path d="M22.2915 32.4584H22.3239" stroke="black" stroke-width="7.21296" stroke-linecap="round" stroke-linejoin="round"/>
</svg>
