<svg width="87" height="88" viewBox="0 0 87 88" fill="none" xmlns="http://www.w3.org/2000/svg">
<path d="M79.342 22.1945V30.9222C79.342 36.6204 75.7355 40.2269 70.0373 40.2269H57.7031V15.0176C57.7031 11.0144 60.985 7.76857 64.9882 7.76857C68.9193 7.80463 72.5258 9.39148 75.1224 11.9881C77.7191 14.6209 79.342 18.2274 79.342 22.1945Z" stroke="black" stroke-width="5.40972" stroke-miterlimit="10" stroke-linecap="round" stroke-linejoin="round"/>
<path d="M7.21289 25.801V76.2917C7.21289 79.2851 10.603 80.9802 12.9833 79.1769L19.1503 74.5606C20.5929 73.4787 22.6126 73.6229 23.9109 74.9213L29.8976 80.9441C31.3042 82.3506 33.6124 82.3506 35.0189 80.9441L41.0778 74.8852C42.34 73.6229 44.3597 73.4787 45.7662 74.5606L51.9332 79.1769C54.3135 80.9441 57.7036 79.249 57.7036 76.2917V14.9815C57.7036 11.0144 60.9495 7.76857 64.9166 7.76857H25.2453H21.6388C10.8194 7.76857 7.21289 14.2242 7.21289 22.1945V25.801Z" stroke="black" stroke-width="5.40972" stroke-miterlimit="10" stroke-linecap="round" stroke-linejoin="round"/>
<path d="M22.541 36.6204H42.3767" stroke="black" stroke-width="5.40972" stroke-linecap="round" stroke-linejoin="round"/>
<path d="M32.458 46.5383V26.7026" stroke="black" stroke-width="5.40972" stroke-linecap="round" stroke-linejoin="round"/>
</svg>
