<svg width="87" height="87" viewBox="0 0 87 87" fill="none" xmlns="http://www.w3.org/2000/svg">
<path d="M74.045 40.8642V25.5007C74.045 10.9666 70.655 7.32397 57.0225 7.32397H29.7575C16.125 7.32397 12.7349 10.9666 12.7349 25.5007V66.1096C12.7349 75.7028 18.0004 77.975 24.3838 71.1226L24.4198 71.0865C27.3771 67.9489 31.8852 68.2013 34.4458 71.6275L38.0884 76.4963" stroke="black" stroke-width="5.40972" stroke-linecap="round" stroke-linejoin="round"/>
<path d="M28.9639 25.3564H57.8157" stroke="black" stroke-width="5.40972" stroke-linecap="round" stroke-linejoin="round"/>
<path d="M32.5703 39.7823H54.2092" stroke="black" stroke-width="5.40972" stroke-linecap="round" stroke-linejoin="round"/>
<path d="M65.7902 53.3798L53.0233 66.1468C52.5184 66.6517 52.0495 67.5893 51.9413 68.2746L51.2561 73.1433C51.0036 74.9105 52.2299 76.1368 53.997 75.8843L58.8658 75.1991C59.551 75.0909 60.5248 74.622 60.9936 74.117L73.7606 61.3502C75.9606 59.1502 77.0064 56.5896 73.7606 53.3438C70.5508 50.134 67.9901 51.1798 65.7902 53.3798Z" stroke="black" stroke-width="5.40972" stroke-miterlimit="10" stroke-linecap="round" stroke-linejoin="round"/>
<path d="M63.9438 55.2191C65.0258 59.1141 68.0552 62.1436 71.9502 63.2255" stroke="black" stroke-width="5.40972" stroke-miterlimit="10" stroke-linecap="round" stroke-linejoin="round"/>
</svg>
