<svg width="88" height="87" viewBox="0 0 88 87" fill="none" xmlns="http://www.w3.org/2000/svg">
<path d="M74.7125 40.8642V25.5007C74.7125 10.9666 71.3224 7.32397 57.6899 7.32397H30.4249C16.7924 7.32397 13.4023 10.9666 13.4023 25.5007V66.1096C13.4023 75.7028 18.6678 77.975 25.0513 71.1226L25.0873 71.0865C28.0446 67.9489 32.5527 68.2013 35.1133 71.6275L38.7559 76.4963" stroke="black" stroke-width="5.40972" stroke-linecap="round" stroke-linejoin="round"/>
<path d="M66.4172 77.2897C72.791 77.2897 77.9579 72.1228 77.9579 65.7491C77.9579 59.3753 72.791 54.2083 66.4172 54.2083C60.0435 54.2083 54.8765 59.3753 54.8765 65.7491C54.8765 72.1228 60.0435 77.2897 66.4172 77.2897Z" stroke="black" stroke-width="5.40972" stroke-linecap="round" stroke-linejoin="round"/>
<path d="M80.1216 79.4537L76.5151 75.8472" stroke="black" stroke-width="5.40972" stroke-linecap="round" stroke-linejoin="round"/>
<path d="M29.6318 25.3564H58.4837" stroke="black" stroke-width="5.40972" stroke-linecap="round" stroke-linejoin="round"/>
<path d="M33.2373 39.7823H54.8762" stroke="black" stroke-width="5.40972" stroke-linecap="round" stroke-linejoin="round"/>
</svg>
