<svg width="87" height="87" viewBox="0 0 87 87" fill="none" xmlns="http://www.w3.org/2000/svg">
<path d="M64.02 25.4255C63.1545 25.2813 62.2529 25.2453 61.3152 25.2453H25.2504C24.2405 25.2453 23.2668 25.3174 22.3291 25.4616C22.834 24.4518 23.5553 23.5143 24.4209 22.6487L36.1419 10.8915C41.0828 5.98672 49.0892 5.98672 54.0301 10.8915L60.3414 17.2749C62.6496 19.5469 63.8758 22.4322 64.02 25.4255Z" stroke="black" stroke-width="5.40972" stroke-linecap="round" stroke-linejoin="round"/>
<path d="M32.4588 68.5232C32.4588 71.228 31.7014 73.7886 30.367 75.9525C27.8786 80.136 23.2983 82.9491 18.0329 82.9491C12.7674 82.9491 8.18717 80.136 5.69869 75.9525C4.36429 73.7886 3.60693 71.228 3.60693 68.5232C3.60693 60.5529 10.0625 54.0973 18.0329 54.0973C26.0032 54.0973 32.4588 60.5529 32.4588 68.5232Z" stroke="black" stroke-width="5.40972" stroke-miterlimit="10" stroke-linecap="round" stroke-linejoin="round"/>
<path d="M23.4109 68.4492H12.6636" stroke="black" stroke-width="5.40972" stroke-miterlimit="10" stroke-linecap="round" stroke-linejoin="round"/>
<path d="M18.0308 63.1839V73.9672" stroke="black" stroke-width="5.40972" stroke-miterlimit="10" stroke-linecap="round" stroke-linejoin="round"/>
<path d="M79.3425 43.2778V61.3103C79.3425 72.1297 72.1296 79.3427 61.3101 79.3427H27.5174C28.6354 78.405 29.6091 77.2509 30.3665 75.9526C31.7009 73.7887 32.4583 71.2281 32.4583 68.5232C32.4583 60.5529 26.0027 54.0973 18.0323 54.0973C13.7046 54.0973 9.84562 56.0087 7.21289 59.002V43.2778C7.21289 33.4682 13.1275 26.6159 22.324 25.4618C23.2617 25.3176 24.2355 25.2454 25.2453 25.2454H61.3101C62.2478 25.2454 63.1494 25.2815 64.015 25.4257C73.3197 26.5077 79.3425 33.3961 79.3425 43.2778Z" stroke="black" stroke-width="5.40972" stroke-linecap="round" stroke-linejoin="round"/>
<path d="M79.343 45.081H68.5235C64.5564 45.081 61.3105 48.3268 61.3105 52.294C61.3105 56.2611 64.5564 59.5069 68.5235 59.5069H79.343" stroke="black" stroke-width="5.40972" stroke-linecap="round" stroke-linejoin="round"/>
</svg>
