<svg width="87" height="88" viewBox="0 0 87 88" fill="none" xmlns="http://www.w3.org/2000/svg">
<path d="M38.7752 61.4731V68.7943C38.7752 74.9975 33.0048 80.0105 25.9 80.0105C18.7953 80.0105 12.9888 74.9975 12.9888 68.7943V61.4731C12.9888 67.6762 18.7592 72.0761 25.9 72.0761C33.0048 72.0761 38.7752 67.6402 38.7752 61.4731Z" stroke="black" stroke-width="5.40972" stroke-linecap="round" stroke-linejoin="round"/>
<path d="M38.7691 51.554C38.7691 53.3572 38.2642 55.0161 37.3986 56.4587C35.2708 59.957 30.9069 62.157 25.8578 62.157C20.8087 62.157 16.4449 59.921 14.317 56.4587C13.4515 55.0161 12.9468 53.3572 12.9468 51.554C12.9468 48.4524 14.3893 45.6754 16.6974 43.6558C19.0417 41.6001 22.2513 40.374 25.8217 40.374C29.3921 40.374 32.602 41.6361 34.9462 43.6558C37.3265 45.6393 38.7691 48.4524 38.7691 51.554Z" stroke="black" stroke-width="5.40972" stroke-linecap="round" stroke-linejoin="round"/>
<path d="M38.7752 51.5539V61.4718C38.7752 67.6749 33.0048 72.0748 25.9 72.0748C18.7953 72.0748 12.9888 67.6388 12.9888 61.4718V51.5539C12.9888 45.3508 18.7592 40.3378 25.9 40.3378C29.4705 40.3378 32.6803 41.6 35.0245 43.6196C37.3327 45.6393 38.7752 48.4524 38.7752 51.5539Z" stroke="black" stroke-width="5.40972" stroke-linecap="round" stroke-linejoin="round"/>
<path d="M79.3423 40.2295V47.6591C79.3423 49.6427 77.7555 51.2654 75.7358 51.3376H68.667C64.772 51.3376 61.2017 48.4885 60.8771 44.5935C60.6608 42.3214 61.5262 40.1935 63.0409 38.7149C64.3753 37.3444 66.2147 36.5511 68.2343 36.5511H75.7358C77.7555 36.6232 79.3423 38.246 79.3423 40.2295Z" stroke="black" stroke-width="5.40972" stroke-linecap="round" stroke-linejoin="round"/>
<path d="M7.2124 38.5347V31.3217C7.2124 21.5121 13.127 14.6598 22.3236 13.5057C23.2613 13.3614 24.235 13.2893 25.2448 13.2893H57.7031C58.6408 13.2893 59.5424 13.3253 60.408 13.4696C69.7127 14.5515 75.7356 21.44 75.7356 31.3217V36.5512H68.234C66.2144 36.5512 64.3751 37.3445 63.0407 38.715C61.5259 40.1936 60.6605 42.3215 60.8769 44.5935C61.2014 48.4885 64.7718 51.3376 68.6668 51.3376H75.7356V56.5671C75.7356 67.3865 68.5226 74.5995 57.7031 74.5995H48.6869" stroke="black" stroke-width="5.40972" stroke-linecap="round" stroke-linejoin="round"/>
</svg>
