<svg width="87" height="87" viewBox="0 0 87 87" fill="none" xmlns="http://www.w3.org/2000/svg">
<path d="M32.5701 68.5232C32.5701 71.228 31.8127 73.7886 30.4783 75.9525C27.9899 80.136 23.4097 82.9491 18.1442 82.9491C12.8787 82.9491 8.2985 80.136 5.81003 75.9525C4.47563 73.7886 3.71826 71.228 3.71826 68.5232C3.71826 60.5529 10.1739 54.0973 18.1442 54.0973C26.1145 54.0973 32.5701 60.5529 32.5701 68.5232Z" stroke="black" stroke-width="5.40972" stroke-miterlimit="10" stroke-linecap="round" stroke-linejoin="round"/>
<path d="M12.5229 68.5214L16.0934 72.0917L23.7752 64.9871" stroke="black" stroke-width="5.40972" stroke-linecap="round" stroke-linejoin="round"/>
<path d="M64.1323 25.4255C63.2668 25.2813 62.3652 25.2453 61.4275 25.2453H25.3627C24.3528 25.2453 23.3791 25.3174 22.4414 25.4616C22.9463 24.4518 23.6676 23.5143 24.5332 22.6487L36.2542 10.8915C41.1951 5.98672 49.2015 5.98672 54.1424 10.8915L60.4537 17.2749C62.7619 19.5469 63.9881 22.4322 64.1323 25.4255Z" stroke="black" stroke-width="5.40972" stroke-linecap="round" stroke-linejoin="round"/>
<path d="M79.4553 43.2778V61.3103C79.4553 72.1297 72.2424 79.3427 61.4229 79.3427H27.6302C28.7482 78.405 29.7219 77.2509 30.4793 75.9526C31.8137 73.7887 32.5711 71.2281 32.5711 68.5232C32.5711 60.5529 26.1155 54.0973 18.1451 54.0973C13.8174 54.0973 9.95842 56.0087 7.32568 59.002V43.2778C7.32568 33.4682 13.2403 26.6159 22.4368 25.4618C23.3745 25.3176 24.3483 25.2454 25.3581 25.2454H61.4229C62.3606 25.2454 63.2622 25.2815 64.1278 25.4257C73.4325 26.5077 79.4553 33.3961 79.4553 43.2778Z" stroke="black" stroke-width="5.40972" stroke-linecap="round" stroke-linejoin="round"/>
<path d="M79.4543 45.081H68.6348C64.6677 45.081 61.4219 48.3268 61.4219 52.294C61.4219 56.2611 64.6677 59.5069 68.6348 59.5069H79.4543" stroke="black" stroke-width="5.40972" stroke-linecap="round" stroke-linejoin="round"/>
</svg>
